<svg xmlns="http://www.w3.org/2000/svg" xmlns:xlink="http://www.w3.org/1999/xlink" width="72" height="72" version="1.1" viewBox="0 0 72 72"><title>Filled / Page / page_collage_add</title><g id="Filled-/-Page-/-page_collage_add" fill="none" fill-rule="nonzero" stroke="none"><path id="Shape-Copy" fill="#FFF" d="M56.8489899,36 C56.8489899,37.6844685 55.4834584,39.05 53.7989899,39.05 L39.05,39.05 L39.05,53.7989899 C39.05,55.4834584 37.6844685,56.8489899 36,56.8489899 C34.3155315,56.8489899 32.95,55.4834584 32.95,53.7989899 L32.95,39.05 L18.2010101,39.05 C16.5165416,39.05 15.1510101,37.6844685 15.1510101,36 C15.1510101,34.3155315 16.5165416,32.95 18.2010101,32.95 L32.95,32.95 L32.95,18.2010101 C32.95,16.5165416 34.3155315,15.1510101 36,15.1510101 C37.6844685,15.1510101 39.05,16.5165416 39.05,18.2010101 L39.05,32.95 L53.7989899,32.95 C55.4834584,32.95 56.8489899,34.3155315 56.8489899,36 Z"/></g></svg>